<svg width="126" height="34" viewBox="0 0 126 34" fill="none" xmlns="http://www.w3.org/2000/svg">
<g filter="url(#filter0_d_4023_806)">
<path d="M23.6799 6.67199H21.0639L21.0159 4.2H23.7279L23.6799 6.67199ZM19.2879 9.38399V6.93599H25.4559V9.38399H19.2879ZM10.4559 24.672C6.2559 24.672 3.9999 21.696 5.0319 17.136L5.7279 13.968H8.0319L7.3119 17.184C6.7359 19.848 7.9839 21.408 10.4559 21.408H12.0399C13.4559 21.408 14.3199 21.024 14.9199 20.448L13.6959 11.28L16.0719 10.344L16.9599 16.8H20.2959C21.2319 16.8 21.8559 16.104 21.8559 15.144V12.288H24.2559V15.312C24.2559 15.648 24.2319 15.96 24.2079 16.272L28.1919 17.376L26.6079 9.43199L29.0319 8.136L30.6159 16.2C30.8559 17.304 30.6159 18.288 29.8239 19.248L28.6719 20.64L22.9119 19.032C22.2399 19.776 21.2559 20.064 20.0799 20.064H17.2719C17.2479 20.4 17.2239 20.712 17.1759 21.024C16.9359 22.656 15.3039 24.672 11.6319 24.672H10.4559ZM30.6695 24.768L29.3975 22.008L32.9015 20.616C33.2855 20.448 33.6215 20.304 33.9815 20.16V9.912L36.5495 9.40799V14.952C36.5495 16.128 37.3415 16.8 38.3015 16.8H39.5735C40.1255 16.8 40.5815 17.52 40.5815 18.432C40.5815 19.344 40.1255 20.064 39.5735 20.064H38.4215C37.5095 20.064 36.7175 19.8 36.1415 19.152V20.04C36.0935 21.648 35.3975 22.848 33.9575 23.448L30.6695 24.768ZM44.004 2.78399V-5.24521e-06H46.932V2.78399H44.004ZM39.54 20.064C39.012 20.064 38.556 19.344 38.556 18.432C38.556 17.52 39.012 16.8 39.54 16.8H47.076H47.964V15.096L47.556 15.216C47.268 15.336 46.932 15.408 46.62 15.408H43.524C42.108 15.408 40.956 14.472 40.764 13.032L40.5 11.208C40.068 8.23199 41.532 5.99999 44.388 5.4L48.42 4.512L49.524 5.44799C50.1 5.90399 50.388 6.57599 50.388 7.296V16.44C50.388 18.552 48.852 20.064 46.764 20.064H39.54ZM43.212 12.648H47.94V7.31999L44.676 8.01599C43.188 8.35199 42.66 9.11999 42.9 10.704L43.212 12.648ZM63.5882 25.176C59.4122 25.176 57.1562 22.2 58.1882 17.64L58.9802 14.064H61.2602L60.4682 17.688C59.8922 20.328 61.1162 21.912 63.6122 21.912H65.1962C66.6842 21.912 67.5722 21.576 68.2202 20.928L68.0282 19.584H63.6602L63.9722 16.8H71.6282C72.1802 16.8 72.6362 17.52 72.6362 18.432C72.6362 19.344 72.1802 20.064 71.6282 20.064H70.5482C70.5482 20.352 70.5002 20.592 70.4762 20.856C70.2842 23.04 68.5322 25.176 64.7642 25.176H63.5882ZM74.4825 6.02399V3.23999H77.4105V6.02399H74.4825ZM71.6025 20.064C71.0505 20.064 70.6185 19.344 70.6185 18.432C70.6185 17.52 71.0505 16.8 71.6025 16.8H73.7145C74.9385 16.8 75.7305 16.488 76.2585 15.96L74.8425 8.976L77.3865 7.752L78.6345 13.776C79.4025 17.52 77.3145 20.064 73.6425 20.064H71.6025ZM81.1747 20.472V5.49599L83.7427 4.77599V19.752L81.1747 20.472ZM84.7164 24.768L83.4444 22.008L86.9484 20.616C87.3324 20.448 87.6684 20.304 88.0284 20.16V9.912L90.5964 9.40799V14.952C90.5964 16.128 91.3884 16.8 92.3484 16.8H93.6204C94.1724 16.8 94.6284 17.52 94.6284 18.432C94.6284 19.344 94.1724 20.064 93.6204 20.064H92.4684C91.5564 20.064 90.7644 19.8 90.1884 19.152V20.04C90.1404 21.648 89.4444 22.848 88.0044 23.448L84.7164 24.768ZM93.6108 20.064C93.0588 20.064 92.6268 19.344 92.6268 18.432C92.6268 17.52 93.0588 16.8 93.6108 16.8H99.7548C100.307 16.8 100.739 17.52 100.739 18.432C100.739 19.344 100.307 20.064 99.7548 20.064H93.6108ZM99.7515 20.064C99.1995 20.064 98.7675 19.344 98.7675 18.432C98.7675 17.52 99.1995 16.8 99.7515 16.8H105.895C106.447 16.8 106.879 17.52 106.879 18.432C106.879 19.344 106.447 20.064 105.895 20.064H99.7515ZM105.892 20.064C105.34 20.064 104.908 19.344 104.908 18.432C104.908 17.52 105.34 16.8 105.892 16.8H112.036C112.588 16.8 113.02 17.52 113.02 18.432C113.02 19.344 112.588 20.064 112.036 20.064H105.892ZM112.009 20.064C111.457 20.064 111.025 19.344 111.025 18.432C111.025 17.52 111.457 16.8 112.009 16.8H114.121C115.345 16.8 116.137 16.488 116.665 15.96L115.249 8.976L117.793 7.752L119.041 13.776C119.809 17.52 117.721 20.064 114.049 20.064H112.009ZM111.841 25.2V22.752H117.985V25.2H111.841ZM121.581 20.472V5.49599L124.149 4.77599V19.752L121.581 20.472Z" fill="#CB1B1B"/>
</g>
<defs>
<filter id="filter0_d_4023_806" x="0" y="0" width="128.149" height="33.2" filterUnits="userSpaceOnUse" color-interpolation-filters="sRGB">
<feFlood flood-opacity="0" result="BackgroundImageFix"/>
<feColorMatrix in="SourceAlpha" type="matrix" values="0 0 0 0 0 0 0 0 0 0 0 0 0 0 0 0 0 0 127 0" result="hardAlpha"/>
<feOffset dy="4"/>
<feGaussianBlur stdDeviation="2"/>
<feComposite in2="hardAlpha" operator="out"/>
<feColorMatrix type="matrix" values="0 0 0 0 0 0 0 0 0 0 0 0 0 0 0 0 0 0 0.25 0"/>
<feBlend mode="normal" in2="BackgroundImageFix" result="effect1_dropShadow_4023_806"/>
<feBlend mode="normal" in="SourceGraphic" in2="effect1_dropShadow_4023_806" result="shape"/>
</filter>
</defs>
</svg>
